#!OML:ASF E:\emotionWalksFemale\Project 1\Capture day 1\Session 1\Female1.ASF
:FULLY-SPECIFIED
:DEGREES
1104
root 10.0812 15.2991 41.6566 0.621043 -166.326 2.92009
lowerback 8.78891 2.02968 1.56265
upperback -2.82416 2.89884 0.0591335
thorax -7.84217 1.33608 -1.26045
lowerneck -3.40487 16.1853 8.38478
upperneck 7.93473 21.4435 -3.72391
head 4.20551 10.6816 -1.1594
rclavicle -5.09277e-014 -4.77083e-015
rhumerus -40.596 14.442 -90.0822
rradius 32.3797
rwrist 15.1737
rhand -1.12043 -55.1348
rfingers 7.12502
rthumb 24.5168 -83.5854
lclavicle -5.09277e-014 -4.77083e-015
lhumerus -36.0069 -15.3425 94.9521
lradius 47.5631
lwrist -3.95196
lhand -5.4486 -37.5938
lfingers 7.12502
lthumb 20.3623 -8.64132
rfemur -1.98667 20.8735 26.8002
rtibia 19.5237
rfoot -15.4769 -21.3156
rtoes -21.8214
lfemur -16.2594 -26.4068 -10.7017
ltibia 30.7798
lfoot -20.3683 10.8826
ltoes -36.9741
1105
root 10.0343 15.2972 41.6472 0.619528 -166.841 2.84974
lowerback 8.70238 2.08211 1.66036
upperback -2.80826 2.97251 -0.0277923
thorax -7.76326 1.36653 -1.41344
lowerneck -3.10196 16.2718 8.62688
upperneck 7.55795 21.5771 -3.91166
head 4.09496 10.7538 -1.27004
rclavicle -3.66012e-014 -1.15295e-014
rhumerus -40.7296 13.8274 -89.7732
rradius 32.4632
rwrist 15.0573
rhand -1.67155 -55.3273
rfingers 7.12502
rthumb 23.9884 -83.8484
lclavicle -3.66012e-014 -1.15295e-014
lhumerus -35.85 -15.2591 94.527
lradius 46.8716
lwrist -5.07941
lhand -7.41696 -38.4963
lfingers 7.12502
lthumb 18.4698 -9.35311
rfemur -1.94382 20.5618 26.4627
rtibia 19.4503
rfoot -15.5644 -20.6475
rtoes -22.7637
lfemur -15.8477 -25.9594 -11.0871
ltibia 30.6786
lfoot -20.7626 10.9361
ltoes -34.6369
1106
root 9.98737 15.2959 41.6394 0.604321 -167.398 2.747
lowerback 8.67279 2.13223 1.71925
upperback -3.06148 3.04279 -0.0662044
thorax -8.011 1.38957 -1.5029
lowerneck -1.80771 16.3476 8.91133
upperneck 6.89576 21.7339 -3.83577
head 4.13173 10.872 -1.57207
rclavicle -2.2736e-015 -8.15017e-015
rhumerus -41.6153 13.2389 -89.4644
rradius 32.9511
rwrist 15.3326
rhand -1.65481 -54.8167
rfingers 7.12502
rthumb 24.0044 -83.3357
lclavicle -2.2736e-015 -8.15017e-015
lhumerus -36.3273 -15.0072 94.2987
lradius 46.3565
lwrist -5.71904
lhand -9.09657 -38.6515
lfingers 7.12502
lthumb 16.8535 -9.36281
rfemur -1.83998 20.5687 26.131
rtibia 19.3204
rfoot -15.5649 -20.1702
rtoes -23.1798
lfemur -15.3816 -26.5288 -11.5359
ltibia 30.5707
lfoot -21.0183 11.7641
ltoes -32.318
1107
root 9.9367 15.2955 41.6273 0.708332 -167.984 2.85746
lowerback 8.37342 2.22877 1.81134
upperback -2.86117 3.17808 -0.0289532
thorax -7.61496 1.46133 -1.51532
lowerneck -2.47311 16.5483 9.16092
upperneck 7.22179 21.9913 -4.26765
head 4.01379 10.9692 -1.45915
rclavicle 1.14301e-015 -6.95746e-015
rhumerus -41.2887 12.7033 -88.8859
rradius 33.2926
rwrist 15.3161
rhand -1.6722 -53.9575
rfingers 7.12502
rthumb 23.9878 -82.4788
lclavicle 1.14301e-015 -6.95746e-015
lhumerus -35.7105 -15.1307 93.8438
lradius 45.9723
lwrist -5.59568
lhand -10.3467 -37.4456
lfingers 7.12502
lthumb 15.6498 -8.05854
rfemur -1.85965 20.8529 25.9887
rtibia 19.1203
rfoot -15.4415 -19.9702
rtoes -23.6812
lfemur -15.1875 -26.177 -11.7284
ltibia 30.4904
lfoot -20.5552 12.7085
ltoes -35.1554
1108
root 9.88361 15.297 41.6189 0.777933 -168.486 3.01436
lowerback 8.12686 2.26979 2.0127
upperback -2.83805 3.25258 0.0303595
thorax -7.43772 1.49273 -1.56338
lowerneck -2.62863 16.5641 9.46131
upperneck 7.13044 22.0108 -4.5458
head 4.07467 10.9735 -1.55472
rclavicle -4.5823e-014 -7.15625e-015
rhumerus -41.374 12.4873 -88.5714
rradius 33.5019
rwrist 14.8271
rhand -1.94887 -53.7497
rfingers 7.12502
rthumb 23.7224 -82.3056
lclavicle -4.5823e-014 -7.15625e-015
lhumerus -35.4912 -14.8826 93.4021
lradius 45.4914
lwrist -5.54787
lhand -10.4818 -37.0106
lfingers 7.12502
lthumb 15.5196 -7.6134
rfemur -1.80559 21.4044 25.9324
rtibia 18.866
rfoot -15.2257 -20.0633
rtoes -24.1003
lfemur -15.0342 -25.6049 -11.8989
ltibia 30.4418
lfoot -20.1329 13.5403
ltoes -37.7653
1109
root 9.83064 15.3002 41.6145 0.757568 -168.903 3.04776
lowerback 7.93865 2.2975 2.14225
upperback -2.77154 3.29962 0.0557294
thorax -7.25067 1.51444 -1.60434
lowerneck -2.46296 16.6217 9.75759
upperneck 6.98737 22.1104 -4.83947
head 4.07625 11.0221 -1.67775
rclavicle 1.17562e-014 -3.18055e-015
rhumerus -41.5179 12.2199 -88.2436
rradius 33.6976
rwrist 14.3941
rhand -2.26455 -53.59
rfingers 7.12502
rthumb 23.4196 -82.1848
lclavicle 1.17562e-014 -3.18055e-015
lhumerus -35.2453 -14.5442 92.9491
lradius 44.8502
lwrist -5.59876
lhand -9.77862 -37.362
lfingers 7.12502
lthumb 16.1968 -8.01867
rfemur -1.61805 21.9091 25.7905
rtibia 18.5968
rfoot -15.0545 -20.0589
rtoes -24.3621
lfemur -14.7716 -25.7242 -12.2331
ltibia 30.4199
lfoot -20.2633 14.3396
ltoes -38.2017
1110
root 9.77625 15.3049 41.6086 0.790484 -169.326 3.01348
lowerback 7.49397 2.35525 2.22434
upperback -2.55157 3.37368 0.101037
thorax -6.75562 1.56003 -1.5837
lowerneck -2.3818 16.7067 9.81171
upperneck 6.71738 22.2522 -5.15019
head 4.03133 11.0852 -1.7741
rclavicle -5.78029e-014 -6.55989e-015
rhumerus -41.4081 11.8984 -87.73
rradius 33.8488
rwrist 14.2179
rhand -2.51523 -53.1095
rfingers 7.12502
rthumb 23.1791 -81.7348
lclavicle -5.78029e-014 -6.55989e-015
lhumerus -34.8192 -14.2684 92.5926
lradius 44.168
lwrist -5.91023
lhand -9.60279 -37.2136
lfingers 7.12502
lthumb 16.3661 -7.88413
rfemur -1.53685 22.1619 25.5168
rtibia 18.4085
rfoot -15.0052 -19.7758
rtoes -25.0706
lfemur -14.5325 -26.3881 -12.612
ltibia 30.3822
lfoot -20.5936 15.3255
ltoes -36.7771
1111
root 9.72197 15.3101 41.6034 0.844401 -169.769 2.95243
lowerback 7.69961 2.41272 2.24752
upperback -2.7121 3.4628 0.153627
thorax -7.04322 1.59608 -1.56845
lowerneck -2.20661 16.7485 9.94052
upperneck 6.69989 22.3352 -5.35679
head 4.04222 11.1243 -1.85166
rclavicle 4.31316e-014 4.96962e-015
rhumerus -41.8118 11.5657 -87.3299
rradius 33.8814
rwrist 14.1412
rhand -3.02677 -52.7005
rfingers 7.12502
rthumb 22.6883 -81.3867
lclavicle 4.31316e-014 4.96962e-015
lhumerus -34.9065 -13.8564 92.384
lradius 43.439
lwrist -6.44944
lhand -9.25016 -36.4817
lfingers 7.12502
lthumb 16.7056 -7.18048
rfemur -1.54705 22.4412 25.2119
rtibia 18.3793
rfoot -15.0309 -19.5714
rtoes -25.5493
lfemur -14.3074 -26.4989 -13.0026
ltibia 30.282
lfoot -20.6861 15.9408
ltoes -35.1862
1112
root 9.66673 15.315 41.5967 0.903983 -170.138 2.8258
lowerback 6.85271 2.48106 1.9851
upperback -2.24292 3.51096 0.359232
thorax -6.08628 1.65692 -1.15615
lowerneck -2.29076 16.8302 9.76131
upperneck 6.22583 22.4702 -5.72514
head 3.94213 11.1764 -1.93427
rclavicle -4.12309e-014 -1.04362e-014
rhumerus -41.2622 11.3117 -86.5221
rradius 33.8341
rwrist 14.0734
rhand -3.67221 -52.3491
rfingers 7.12502
rthumb 22.0687 -81.1098
lclavicle -4.12309e-014 -1.04362e-014
lhumerus -33.9057 -13.2625 92.1501
lradius 42.6444
lwrist -6.50238
lhand -7.63876 -36.0297
lfingers 7.12502
lthumb 18.2564 -6.8664
rfemur -1.60038 22.7378 24.8721
rtibia 18.5234
rfoot -15.2376 -19.586
rtoes -25.5527
lfemur -14.0563 -26.223 -13.4601
ltibia 30.1066
lfoot -20.3631 16.3439
ltoes -35.3337
1113
root 9.6103 15.3198 41.5885 0.984843 -170.456 2.59754
lowerback 7.7369 2.44834 2.20236
upperback -2.83457 3.50078 0.0445509
thorax -7.18949 1.61001 -1.66817
lowerneck -2.32782 16.9302 9.85558
upperneck 6.81805 22.5405 -4.93541
head 4.0535 11.2364 -1.69423
rclavicle -2.22546e-014 -2.18663e-015
rhumerus -42.3672 10.5662 -86.6572
rradius 33.9953
rwrist 14.4189
rhand -4.22857 -51.951
rfingers 7.12502
rthumb 21.5345 -80.7738
lclavicle -2.22546e-014 -2.18663e-015
lhumerus -34.6699 -13.0784 91.5973
lradius 41.853
lwrist -7.20723
lhand -7.70789 -36.3881
lfingers 7.12502
lthumb 18.1899 -7.21857
rfemur -1.71852 22.7601 24.3945
rtibia 18.7502
rfoot -15.5384 -19.4979
rtoes -25.8836
lfemur -13.7766 -26.2044 -14.0293
ltibia 29.8958
lfoot -20.1449 16.8105
ltoes -36.223
1114
root 9.55774 15.3223 41.5847 1.04638 -170.754 2.35528
lowerback 7.38624 2.46655 1.85379
upperback -2.62423 3.48485 0.143848
thorax -6.79063 1.63 -1.34318
lowerneck -2.51003 17.0276 9.86712
upperneck 6.79381 22.6777 -5.14441
head 4.10967 11.2933 -1.7225
rclavicle -7.14072e-015 4.37326e-015
rhumerus -42.2162 10.4975 -86.1668
rradius 34.0557
rwrist 14.2032
rhand -4.38486 -51.7462
rfingers 7.12502
rthumb 21.3843 -80.5862
lclavicle -7.14072e-015 4.37326e-015
lhumerus -34.082 -12.5433 91.3699
lradius 40.887
lwrist -7.81025
lhand -7.34533 -35.7815
lfingers 7.12502
lthumb 18.5387 -6.64488
rfemur -1.84665 22.733 23.8965
rtibia 18.951
rfoot -15.7481 -19.3397
rtoes -26.4597
lfemur -13.5192 -26.2528 -14.5782
ltibia 29.6816
lfoot -20.0968 17.2179
ltoes -35.9859
1115
root 9.50703 15.3235 41.5834 1.08679 -171.003 2.20628
lowerback 7.2037 2.45921 1.76444
upperback -2.49188 3.45987 0.11801
thorax -6.54967 1.62666 -1.30378
lowerneck -2.42599 17.1004 10.0285
upperneck 6.45798 22.7844 -5.33907
head 4.04058 11.3465 -1.80579
rclavicle 8.45456e-015 -6.95746e-015
rhumerus -42.0029 10.1396 -85.8192
rradius 34.0087
rwrist 13.8159
rhand -3.39749 -52.8116
rfingers 7.12502
rthumb 22.3324 -81.5409
lclavicle 8.45456e-015 -6.95746e-015
lhumerus -33.7319 -12.2981 90.9784
lradius 39.913
lwrist -8.67484
lhand -7.78038 -35.4254
lfingers 7.12502
lthumb 18.1201 -6.24945
rfemur -1.93788 23.1736 23.5697
rtibia 19.1759
rfoot -15.8067 -19.641
rtoes -27.0819
lfemur -13.2917 -26.3877 -14.975
ltibia 29.4603
lfoot -20.1043 17.5079
ltoes -35.3886
1116
root 9.45569 15.3288 41.5767 1.1614 -171.303 2.12844
lowerback 7.46863 2.47375 1.88119
upperback -2.69842 3.48959 -0.0276984
thorax -6.90424 1.62484 -1.54485
lowerneck -2.31038 17.1521 10.3054
upperneck 6.34387 22.8447 -5.31536
head 4.01886 11.3858 -1.83906
rclavicle 1.2817e-014 3.57812e-015
rhumerus -42.323 9.47149 -85.698
rradius 33.9893
rwrist 13.6782
rhand -2.18637 -54.3314
rfingers 7.12502
rthumb 23.4946 -82.9167
lclavicle 1.2817e-014 3.57812e-015
lhumerus -34.0908 -12.2571 90.4994
lradius 39.2309
lwrist -9.40882
lhand -8.22289 -35.3269
lfingers 7.12502
lthumb 17.6944 -6.11199
rfemur -2.02783 23.9021 23.3518
rtibia 19.425
rfoot -15.7056 -20.1964
rtoes -27.2157
lfemur -13.1129 -26.3816 -15.2614
ltibia 29.2732
lfoot -20.4655 17.4878
ltoes -33.3238
1117
root 9.39919 15.3317 41.5748 1.22536 -171.609 1.94801
lowerback 7.75046 2.462 1.95963
upperback -2.88558 3.48099 -0.159575
thorax -7.2536 1.60523 -1.74632
lowerneck -2.21414 17.2622 10.4146
upperneck 6.35998 22.9874 -5.21783
head 4.01937 11.4635 -1.81872
rclavicle 1.16662e-014 -1.98785e-016
rhumerus -42.7127 9.13571 -85.6398
rradius 33.9834
rwrist 13.6485
rhand -1.96411 -54.6385
rfingers 7.12502
rthumb 23.7078 -83.1963
lclavicle 1.16662e-014 -1.98785e-016
lhumerus -34.4523 -12.0644 90.0193
lradius 38.7935
lwrist -9.6813
lhand -7.21736 -34.8977
lfingers 7.12502
lthumb 18.6618 -5.77288
rfemur -2.11376 24.3433 22.9495
rtibia 19.6101
rfoot -15.7603 -20.4585
rtoes -26.7945
lfemur -12.9828 -26.2044 -15.6927
ltibia 29.1526
lfoot -20.7598 17.4815
ltoes -32.3043
